<svg version="1.1" id="Layer_1" xmlns="http://www.w3.org/2000/svg" xmlns:xlink="http://www.w3.org/1999/xlink" x="0px" y="0px"
	 width="100%" viewBox="0 0 1248 332" enable-background="new 0 0 1248 332" xml:space="preserve">
<path fill="#0B0B0B" opacity="1.000000" stroke="none" 
	d="
M277.178314,45.902256 
	C300.567932,56.823650 313.469238,75.202469 317.256866,100.059341 
	C318.429840,107.757210 318.965973,115.611092 319.062042,123.402557 
	C319.308472,143.390228 319.024445,163.383911 319.182739,183.373383 
	C319.306671,199.024185 317.271149,214.284439 310.746368,228.582306 
	C303.459717,244.549561 291.254730,255.479141 274.849060,261.819366 
	C261.588684,266.944031 247.804306,268.452637 233.758682,268.070343 
	C228.815918,267.935791 225.368164,269.412018 222.402283,273.615021 
	C216.771042,281.595154 210.536942,289.149811 204.555969,296.883270 
	C194.470825,309.923431 175.918732,310.540222 165.407608,297.853027 
	C158.852188,289.940491 152.629929,281.716949 146.772232,273.276215 
	C143.867996,269.091309 140.222092,268.385254 135.728897,268.069214 
	C123.490501,267.208405 111.115181,266.916626 99.087097,264.763031 
	C80.572372,261.447968 66.107414,251.630737 58.594429,233.702087 
	C52.489716,219.134125 50.583740,203.640900 50.470276,187.964539 
	C50.307510,165.476151 50.299637,142.984741 50.473698,120.496529 
	C50.586231,105.957603 52.432098,91.578018 58.678467,78.296082 
	C67.648674,59.222317 82.978264,47.405285 103.318436,42.676514 
	C112.791328,40.474216 122.659996,39.073517 132.369736,38.952564 
	C167.348053,38.516827 202.335236,38.725719 237.318802,38.807545 
	C250.863037,38.839222 264.087860,40.964161 277.178314,45.902256 
M176.880417,288.770386 
	C183.064941,294.043457 187.846619,294.177979 193.195633,287.981293 
	C199.681625,280.467468 205.484756,272.360931 211.521072,264.463257 
	C215.782196,258.888214 220.467163,254.664856 228.248734,254.383331 
	C238.670807,254.006287 249.222061,253.464828 259.416718,251.461563 
	C272.843964,248.823135 284.827332,243.040894 292.902313,230.958817 
	C301.249115,218.470062 304.526245,204.615402 304.667969,189.934479 
	C304.889954,166.938339 304.947601,143.935257 304.608795,120.941986 
	C304.489594,112.852043 303.663788,104.641144 301.983215,96.735786 
	C299.334869,84.278175 293.537689,73.541443 282.841309,65.674042 
	C269.699341,56.007896 254.638443,53.270271 239.050690,53.115639 
	C203.890137,52.766846 168.723526,52.947460 133.559891,53.064114 
	C127.589142,53.083923 121.554428,53.437458 115.665306,54.369793 
	C103.388924,56.313316 91.879959,60.221905 82.555336,69.045883 
	C71.990555,79.043411 66.876022,91.730247 66.066910,105.768486 
	C64.956673,125.031151 64.906120,144.362183 64.694298,163.667114 
	C64.511864,180.293076 64.110992,196.929810 67.148270,213.437637 
	C70.624931,232.333527 79.791534,246.294754 100.231262,250.335938 
	C112.370682,252.736069 124.913139,253.337006 137.314270,254.091965 
	C145.920837,254.615952 152.872086,256.787750 157.999954,264.493500 
	C163.536194,272.812866 170.124634,280.432037 176.880417,288.770386 
z"/>


<path fill="#FDFDFD" opacity="1.000000" stroke="none" 
	d="
M176.567261,288.563507 
	C170.124634,280.432037 163.536194,272.812866 157.999954,264.493500 
	C152.872086,256.787750 145.920837,254.615952 137.314270,254.091965 
	C124.913139,253.337006 112.370682,252.736069 100.231262,250.335938 
	C79.791534,246.294754 70.624931,232.333527 67.148270,213.437637 
	C64.110992,196.929810 64.511864,180.293076 64.694298,163.667114 
	C64.906120,144.362183 64.956673,125.031151 66.066910,105.768486 
	C66.876022,91.730247 71.990555,79.043411 82.555336,69.045883 
	C91.879959,60.221905 103.388924,56.313316 115.665306,54.369793 
	C121.554428,53.437458 127.589142,53.083923 133.559891,53.064114 
	C168.723526,52.947460 203.890137,52.766846 239.050690,53.115639 
	C254.638443,53.270271 269.699341,56.007896 282.841309,65.674042 
	C293.537689,73.541443 299.334869,84.278175 301.983215,96.735786 
	C303.663788,104.641144 304.489594,112.852043 304.608795,120.941986 
	C304.947601,143.935257 304.889954,166.938339 304.667969,189.934479 
	C304.526245,204.615402 301.249115,218.470062 292.902313,230.958817 
	C284.827332,243.040894 272.843964,248.823135 259.416718,251.461563 
	C249.222061,253.464828 238.670807,254.006287 228.248734,254.383331 
	C220.467163,254.664856 215.782196,258.888214 211.521072,264.463257 
	C205.484756,272.360931 199.681625,280.467468 193.195633,287.981293 
	C187.846619,294.177979 183.064941,294.043457 176.567261,288.563507 
M174.453125,223.960129 
	C174.585144,224.390793 174.717163,224.821457 174.805725,225.647995 
	C174.805725,225.647995 174.994949,225.998413 174.972031,226.716263 
	C176.783447,230.937073 180.344040,232.477936 184.569992,232.629730 
	C188.813309,232.782135 192.132492,230.616348 193.766083,226.909866 
	C194.852066,224.445877 194.996780,221.423416 195.003860,218.649521 
	C195.083405,187.500916 195.111786,156.351807 194.984024,125.203522 
	C194.967499,121.172958 196.059372,119.540405 200.326035,119.681816 
	C208.645432,119.957573 217.011093,120.178757 225.294861,119.569496 
	C228.926849,119.302383 233.213028,117.745705 235.681488,115.262794 
	C237.459900,113.473946 237.794876,108.816109 236.858643,106.097473 
	C235.443512,101.988190 231.446030,100.024261 226.860779,100.024605 
	C199.043411,100.026711 171.225998,100.008385 143.408737,100.064491 
	C141.439560,100.068466 139.384552,100.348579 137.519867,100.959442 
	C132.746796,102.523109 130.228012,107.169907 131.276688,111.988342 
	C132.361954,116.974869 136.326782,119.654129 143.055618,119.750900 
	C153.543625,119.901741 164.032944,119.960236 174.476913,120.986977 
	C174.483612,135.099258 174.465652,149.211609 174.502899,163.323807 
	C174.555908,183.406235 174.649490,203.488556 174.453125,223.960129 
z"/>

<path fill="none" opacity="1.000000" stroke="none" 
	d="
M994.757324,216.087189 
	C988.583862,205.338211 994.013489,195.100433 1006.587463,192.565796 
	C1015.054016,190.859131 1023.629578,189.698410 1032.141479,188.208374 
	C1034.735718,187.754257 1037.280518,187.017288 1039.843018,186.411011 
	C1044.080078,198.822083 1039.251953,213.009705 1028.736694,219.627762 
	C1020.228577,224.982544 1001.377625,225.097076 994.757324,216.087189 
z"/>
<path fill="none" opacity="1.000000" stroke="none" 
	d="
M727.057617,202.680191 
	C722.119568,185.884094 722.817505,170.196671 734.583984,156.793747 
	C746.233826,143.523727 768.450623,146.067261 777.103760,161.526886 
	C785.853638,177.159332 786.106262,193.296616 777.749207,209.178574 
	C772.888977,218.414871 765.036865,223.133774 754.257202,223.240540 
	C743.507202,223.347015 735.771545,218.745331 730.353882,209.796127 
	C729.073975,207.681824 728.204895,205.318817 727.057617,202.680191 
z"/>
<path fill="#4069F6" opacity="1.000000" stroke="none" 
	d="
M174.521713,120.057861 
	C164.032944,119.960236 153.543625,119.901741 143.055618,119.750900 
	C136.326782,119.654129 132.361954,116.974869 131.276688,111.988342 
	C130.228012,107.169907 132.746796,102.523109 137.519867,100.959442 
	C139.384552,100.348579 141.439560,100.068466 143.408737,100.064491 
	C171.225998,100.008385 199.043411,100.026711 226.860779,100.024605 
	C231.446030,100.024261 235.443512,101.988190 236.858643,106.097473 
	C237.794876,108.816109 237.459900,113.473946 235.681488,115.262794 
	C233.213028,117.745705 228.926849,119.302383 225.294861,119.569496 
	C217.011093,120.178757 208.645432,119.957573 200.326035,119.681816 
	C196.059372,119.540405 194.967499,121.172958 194.984024,125.203522 
	C195.111786,156.351807 195.083405,187.500916 195.003860,218.649521 
	C194.996780,221.423416 194.852066,224.445877 193.766083,226.909866 
	C192.132492,230.616348 188.813309,232.782135 184.569992,232.629730 
	C180.344040,232.477936 176.783447,230.937073 175.296478,226.076721 
	C175.750534,224.794312 175.993179,224.151474 175.993546,223.508514 
	C176.012955,190.300018 176.028320,157.091476 175.949814,123.883163 
	C175.946793,122.606941 175.018738,121.332909 174.521713,120.057861 
z"/>
<path fill="#0655F5" opacity="1.000000" stroke="none" 
	d="
M174.499313,120.522415 
	C175.018738,121.332909 175.946793,122.606941 175.949814,123.883163 
	C176.028320,157.091476 176.012955,190.300018 175.993546,223.508514 
	C175.993179,224.151474 175.750534,224.794312 175.307922,225.717804 
	C174.994949,225.998413 174.805725,225.647995 174.868744,225.024200 
	C174.863113,224.123917 174.794434,223.847427 174.725739,223.570923 
	C174.649490,203.488556 174.555908,183.406235 174.502899,163.323807 
	C174.465652,149.211609 174.483612,135.099258 174.499313,120.522415 
z"/>
<path fill="#4069F6" opacity="1.000000" stroke="none" 
	d="
M174.589432,223.765533 
	C174.794434,223.847427 174.863113,224.123917 174.890488,224.826263 
	C174.717163,224.821457 174.585144,224.390793 174.589432,223.765533 
z"/>
</svg>